<svg xmlns="http://www.w3.org/2000/svg" xmlns:xlink="http://www.w3.org/1999/xlink" width="1040" height="667.88"><rect width="1040" height="667.88" rx="5" ry="5" class="a"/><svg y="0%" x="0%"><circle cx="20" cy="20" r="6" fill="#ff5f58"/><circle cx="40" cy="20" r="6" fill="#ffbd2e"/><circle cx="60" cy="20" r="6" fill="#18c132"/></svg><svg height="607.88" viewBox="0 0 100 60.788" width="1000" x="15" xmlns="http://www.w3.org/2000/svg" xmlns:xlink="http://www.w3.org/1999/xlink" y="50"><style>@keyframes k{0%{transform:translateX(0)}1.2%{transform:translateX(-100px)}1.3%{transform:translateX(-200px)}13.5%{transform:translateX(-300px)}23.3%{transform:translateX(-400px)}35.5%{transform:translateX(-500px)}43.6%{transform:translateX(-600px)}55.8%{transform:translateX(-700px)}67.2%{transform:translateX(-800px)}79.4%{transform:translateX(-900px)}87.8%{transform:translateX(-1100px)}to{transform:translateX(-1200px)}}.a{fill:#282d35}.f{fill:#66c2cd;font-weight:700}.f,.g,.h,.i{white-space:pre}.g{fill:#a8cc8c;font-weight:700}.h,.i{fill:#b9c0cb}.i{fill:#a8cc8c}</style><g font-family="Monaco,Consolas,Menlo,'Bitstream Vera Sans Mono','Powerline Symbols',monospace" font-size="1.67"><defs><symbol id="1"><text y="1.67" class="f">$</text><text x="2.004" y="1.67" class="f">#</text><text x="4.008" y="1.67" class="f">ContextLayer</text><text x="17.034" y="1.67" class="f">—</text><text x="19.038" y="1.67" class="f">The</text><text x="23.046" y="1.67" class="f">missing</text><text x="31.062" y="1.67" class="f">context</text><text x="39.078" y="1.67" class="f">layer</text><text x="45.09" y="1.67" class="f">for</text><text x="49.098" y="1.67" class="f">AI</text><text x="52.104" y="1.67" class="f">coding</text><text x="59.118" y="1.67" class="f">agents</text></symbol><symbol id="2"><text y="1.67" class="g">$</text><text x="2.004" y="1.67" class="g">contextlayer</text><text x="15.03" y="1.67" class="g">status</text><text x="22.044" y="1.67" class="g">--repo</text><text x="29.058" y="1.67" class="g">demo-data/acme-billing-api</text></symbol><symbol id="3"><text y="1.67" class="h">Repo:</text><text x="16.032" y="1.67" class="h">demo-data/acme-billing-api</text></symbol><symbol id="4"><text y="1.67" class="h">DB:</text><text x="16.032" y="1.67" class="h">/Users/antarangsharma/.contextlayer/66cb5dd4ff37/index.db</text></symbol><symbol id="5"><text y="1.67" class="h">Atoms:</text><text x="16.032" y="1.67" class="h">15</text></symbol><symbol id="6"><text y="1.67" class="h">Topics:</text><text x="16.032" y="1.67" class="h">7</text></symbol><symbol id="7"><text y="1.67" class="h">Rules:</text><text x="16.032" y="1.67" class="h">8</text></symbol><symbol id="8"><text y="1.67" class="h">Last</text><text x="5.01" y="1.67" class="h">indexed:</text><text x="16.032" y="1.67" class="h">2026-05-19</text><text x="27.054" y="1.67" class="h">02:42</text><text x="33.066" y="1.67" class="h">UTC</text></symbol><symbol id="9"><text y="1.67" class="g">$</text><text x="2.004" y="1.67" class="g">contextlayer</text><text x="15.03" y="1.67" class="g">health</text><text x="22.044" y="1.67" class="g">--repo</text><text x="29.058" y="1.67" class="g">demo-data/acme-billing-api</text></symbol><symbol id="10"><text y="1.67" class="h">╭────────────────────────────────────╮</text></symbol><symbol id="11"><text y="1.67" class="h">│</text><text x="2.004" y="1.67" class="h">Convention</text><text x="13.026" y="1.67" class="h">Health:</text><text x="21.042" y="1.67" class="h">A+</text><text x="24.048" y="1.67" class="h">(97/100)</text><text x="37.074" y="1.67" class="h">│</text></symbol><symbol id="12"><text y="1.67" class="h">│</text><text x="37.074" y="1.67" class="h">│</text></symbol><symbol id="13"><text y="1.67" class="h">│</text><text x="4.008" y="1.67" class="h">✓</text><text x="6.012" y="1.67" class="h">15</text><text x="9.018" y="1.67" class="h">atoms</text><text x="15.03" y="1.67" class="h">extracted</text><text x="37.074" y="1.67" class="h">│</text></symbol><symbol id="14"><text y="1.67" class="h">│</text><text x="4.008" y="1.67" class="h">✓</text><text x="6.012" y="1.67" class="h">8</text><text x="8.016" y="1.67" class="h">rules</text><text x="14.028" y="1.67" class="h">promoted</text><text x="37.074" y="1.67" class="h">│</text></symbol><symbol id="15"><text y="1.67" class="h">│</text><text x="4.008" y="1.67" class="h">✓</text><text x="6.012" y="1.67" class="h">7</text><text x="8.016" y="1.67" class="h">topics</text><text x="15.03" y="1.67" class="h">discovered</text><text x="37.074" y="1.67" class="h">│</text></symbol><symbol id="16"><text y="1.67" class="h">│</text><text x="4.008" y="1.67" class="h">✓</text><text x="6.012" y="1.67" class="h">32</text><text x="9.018" y="1.67" class="h">PR/commit</text><text x="19.038" y="1.67" class="h">citations</text><text x="37.074" y="1.67" class="h">│</text></symbol><symbol id="17"><text y="1.67" class="h">│</text><text x="4.008" y="1.67" class="h">✗</text><text x="6.012" y="1.67" class="h">1</text><text x="8.016" y="1.67" class="h">potential</text><text x="18.036" y="1.67" class="h">conflict</text><text x="27.054" y="1.67" class="h">detected</text><text x="37.074" y="1.67" class="h">│</text></symbol><symbol id="18"><text y="1.67" class="h">│</text><text x="4.008" y="1.67" class="h">Run:</text><text x="9.018" y="1.67" class="h">contextlayer</text><text x="22.044" y="1.67" class="h">drift</text><text x="28.056" y="1.67" class="h">--last</text><text x="35.07" y="1.67" class="h">5</text><text x="37.074" y="1.67" class="h">│</text></symbol><symbol id="19"><text y="1.67" class="h">│</text><text x="4.008" y="1.67" class="h">to</text><text x="7.014" y="1.67" class="h">check</text><text x="13.026" y="1.67" class="h">recent</text><text x="20.04" y="1.67" class="h">compliance.</text><text x="37.074" y="1.67" class="h">│</text></symbol><symbol id="20"><text y="1.67" class="h">╰────────────────────────────────────╯</text></symbol><symbol id="21"><text y="1.67" class="g">$</text><text x="2.004" y="1.67" class="g">contextlayer</text><text x="15.03" y="1.67" class="g">note</text><text x="20.04" y="1.67" class="g">&quot;auth</text><text x="26.052" y="1.67" class="g">tokens</text><text x="33.066" y="1.67" class="g">expire</text><text x="40.08" y="1.67" class="g">in</text><text x="43.086" y="1.67" class="g">7d&quot;</text><text x="47.094" y="1.67" class="g">--repo</text><text x="54.108" y="1.67" class="g">demo-data/acme-billing-api</text></symbol><symbol id="22"><text y="1.67" class="i">✓</text><text x="2.004" y="1.67" class="i">Note</text><text x="7.014" y="1.67" class="i">captured</text></symbol><symbol id="23"><text x="2.004" y="1.67" class="h">id:</text><text x="13.026" y="1.67" class="h">a_f5ff0f</text></symbol><symbol id="24"><text x="2.004" y="1.67" class="h">category:</text><text x="13.026" y="1.67" class="h">user_decision</text></symbol><symbol id="25"><text x="2.004" y="1.67" class="h">summary:</text><text x="13.026" y="1.67" class="h">auth</text><text x="18.036" y="1.67" class="h">tokens</text><text x="25.05" y="1.67" class="h">expire</text><text x="32.064" y="1.67" class="h">in</text><text x="35.07" y="1.67" class="h">7d</text></symbol><symbol id="26"><text x="2.004" y="1.67" class="h">db:</text><text x="13.026" y="1.67" class="h">/Users/antarangsharma/.contextlayer/66cb5dd4ff37/index.db</text></symbol><symbol id="27"><text y="1.67" class="h">This</text><text x="5.01" y="1.67" class="h">atom</text><text x="10.02" y="1.67" class="h">is</text><text x="13.026" y="1.67" class="h">now</text><text x="17.034" y="1.67" class="h">retrievable</text><text x="29.058" y="1.67" class="h">via</text><text x="33.066" y="1.67" class="h">context_query</text><text x="47.094" y="1.67" class="h">from</text><text x="52.104" y="1.67" class="h">any</text><text x="56.112" y="1.67" class="h">MCP</text><text x="60.12" y="1.67" class="h">client.</text></symbol><symbol id="28"><text y="1.67" class="g">$</text><text x="2.004" y="1.67" class="g">contextlayer</text><text x="15.03" y="1.67" class="g">drift</text><text x="21.042" y="1.67" class="g">--last</text><text x="28.056" y="1.67" class="g">2</text><text x="30.06" y="1.67" class="g">--repo</text><text x="37.074" y="1.67" class="g">demo-data/acme-billing-api</text></symbol><symbol id="29"><text y="1.67" class="h">Checking</text><text x="9.018" y="1.67" class="h">last</text><text x="14.028" y="1.67" class="h">2</text><text x="16.032" y="1.67" class="h">commits</text><text x="24.048" y="1.67" class="h">against</text><text x="32.064" y="1.67" class="h">8</text><text x="34.068" y="1.67" class="h">rules...</text></symbol><symbol id="30"><text y="1.67" class="h">⚠</text><text x="2.004" y="1.67" class="h">4</text><text x="4.008" y="1.67" class="h">potential</text><text x="14.028" y="1.67" class="h">violations</text><text x="25.05" y="1.67" class="h">found:</text></symbol><symbol id="31"><text x="2.004" y="1.67" class="h">commit</text><text x="9.018" y="1.67" class="h">8acdad7</text><text x="17.034" y="1.67" class="h">(7</text><text x="20.04" y="1.67" class="h">months</text><text x="27.054" y="1.67" class="h">ago)</text><text x="32.064" y="1.67" class="h">&quot;Onboarding</text><text x="44.088" y="1.67" class="h">doc</text><text x="48.096" y="1.67" class="h">+</text><text x="50.1" y="1.67" class="h">README</text><text x="57.114" y="1.67" class="h">pass</text><text x="62.124" y="1.67" class="h">for</text><text x="66.132" y="1.67" class="h">new</text><text x="70.14" y="1.67" class="h">hires&quot;</text></symbol><symbol id="32"><text x="2.004" y="1.67" class="h">┗━</text><text x="5.01" y="1.67" class="h">Violates</text><text x="14.028" y="1.67" class="h">rule</text><text x="19.038" y="1.67" class="h">a_259809:</text><text x="29.058" y="1.67" class="h">&quot;Do</text><text x="33.066" y="1.67" class="h">not</text><text x="37.074" y="1.67" class="h">use</text><text x="41.082" y="1.67" class="h">utils/db_helper;</text><text x="58.116" y="1.67" class="h">use</text><text x="62.124" y="1.67" class="h">Depends(get_session)</text><text x="83.166" y="1.67" class="h">or</text></symbol><symbol id="33"><text y="1.67" class="h">Depends(get_async_session)</text><text x="27.054" y="1.67" class="h">instead.</text><text x="36.072" y="1.67" class="h">Module</text><text x="43.086" y="1.67" class="h">raises</text><text x="50.1" y="1.67" class="h">RuntimeError</text><text x="63.126" y="1.67" class="h">after</text><text x="69.138" y="1.67" class="h">2027-Q1.&quot;</text></symbol><symbol id="34"><text x="5.01" y="1.67" class="h">Source:</text><text x="13.026" y="1.67" class="h">PR</text><text x="16.032" y="1.67" class="h">#8</text></symbol><symbol id="35"><text x="5.01" y="1.67" class="h">Matched:</text><text x="14.028" y="1.67" class="h">utils/db_helper</text></symbol><symbol id="36"><text x="2.004" y="1.67" class="h">┗━</text><text x="5.01" y="1.67" class="h">Violates</text><text x="14.028" y="1.67" class="h">rule</text><text x="19.038" y="1.67" class="h">a_76ab71:</text><text x="29.058" y="1.67" class="h">&quot;Do</text><text x="33.066" y="1.67" class="h">not</text><text x="37.074" y="1.67" class="h">bypass</text><text x="44.088" y="1.67" class="h">get_session</text><text x="56.112" y="1.67" class="h">because</text><text x="64.128" y="1.67" class="h">&apos;the</text><text x="69.138" y="1.67" class="h">session</text><text x="77.154" y="1.67" class="h">is</text><text x="80.16" y="1.67" class="h">too</text><text x="84.168" y="1.67" class="h">short-lived&apos;;</text></symbol><symbol id="37"><text y="1.67" class="h">fix</text><text x="4.008" y="1.67" class="h">the</text><text x="8.016" y="1.67" class="h">route</text><text x="14.028" y="1.67" class="h">lifecycle</text><text x="24.048" y="1.67" class="h">instead.&quot;</text></symbol><symbol id="38"><text x="5.01" y="1.67" class="h">Matched:</text><text x="14.028" y="1.67" class="h">get_session</text></symbol><symbol id="39"><text x="2.004" y="1.67" class="h">┗━</text><text x="5.01" y="1.67" class="h">Violates</text><text x="14.028" y="1.67" class="h">rule</text><text x="19.038" y="1.67" class="h">a_21023d:</text><text x="29.058" y="1.67" class="h">&quot;NEVER</text><text x="36.072" y="1.67" class="h">create</text><text x="43.086" y="1.67" class="h">module-level</text><text x="56.112" y="1.67" class="h">SQLAlchemy</text><text x="67.134" y="1.67" class="h">sessions</text><text x="76.152" y="1.67" class="h">or</text><text x="79.158" y="1.67" class="h">share</text><text x="85.17" y="1.67" class="h">sessions</text><text x="94.188" y="1.67" class="h">across</text></symbol><symbol id="40"><text y="1.67" class="h">requests.</text><text x="10.02" y="1.67" class="h">Sessions</text><text x="19.038" y="1.67" class="h">must</text><text x="24.048" y="1.67" class="h">be</text><text x="27.054" y="1.67" class="h">request-scoped</text><text x="42.084" y="1.67" class="h">via</text><text x="46.092" y="1.67" class="h">Depends(get_session)</text><text x="67.134" y="1.67" class="h">or</text><text x="70.14" y="1.67" class="h">Depends(get_async_session).&quot;</text></symbol><symbol id="41"><text x="5.01" y="1.67" class="h">Source:</text><text x="13.026" y="1.67" class="h">PR</text><text x="16.032" y="1.67" class="h">#14</text></symbol><symbol id="42"><text x="5.01" y="1.67" class="h">Matched:</text><text x="14.028" y="1.67" class="h">sqlalchemy</text></symbol><symbol id="43"><text x="2.004" y="1.67" class="h">commit</text><text x="9.018" y="1.67" class="h">7773cde</text><text x="17.034" y="1.67" class="h">(7</text><text x="20.04" y="1.67" class="h">months</text><text x="27.054" y="1.67" class="h">ago)</text><text x="32.064" y="1.67" class="h">&quot;Fix</text><text x="37.074" y="1.67" class="h">anti-pattern:</text><text x="51.102" y="1.67" class="h">shared</text><text x="58.116" y="1.67" class="h">SQLAlchemy</text><text x="69.138" y="1.67" class="h">session</text><text x="77.154" y="1.67" class="h">across</text><text x="84.168" y="1.67" class="h">requests</text></symbol><symbol id="44"><text y="1.67" class="h">(routes/legacy.py)&quot;</text></symbol><symbol id="a"><path fill="transparent" d="M0 0h100v29H0z"/></symbol></defs><path class="a" d="M0 0h100v60.788H0z"/><g style="animation-duration:16.382022000000003s;animation-iteration-count:infinite;animation-name:k;animation-timing-function:steps(1,end)"><svg width="1300"><svg><use xlink:href="#a"/></svg><svg x="100"><use xlink:href="#a"/></svg><svg x="200"><use xlink:href="#a"/><use xlink:href="#1"/></svg><svg x="300"><use xlink:href="#a"/><use xlink:href="#1"/><use xlink:href="#2" y="2.171"/></svg><svg x="400"><use xlink:href="#a"/><use xlink:href="#1"/><use xlink:href="#2" y="2.171"/><use xlink:href="#3" y="4.342"/><use xlink:href="#4" y="6.513"/><use xlink:href="#5" y="8.684"/><use xlink:href="#6" y="10.855"/><use xlink:href="#7" y="13.026"/><use xlink:href="#8" y="15.197"/></svg><svg x="500"><use xlink:href="#a"/><use xlink:href="#1"/><use xlink:href="#2" y="2.171"/><use xlink:href="#3" y="4.342"/><use xlink:href="#4" y="6.513"/><use xlink:href="#5" y="8.684"/><use xlink:href="#6" y="10.855"/><use xlink:href="#7" y="13.026"/><use xlink:href="#8" y="15.197"/><use xlink:href="#9" y="17.368"/></svg><svg x="600"><use xlink:href="#a"/><use xlink:href="#1"/><use xlink:href="#2" y="2.171"/><use xlink:href="#3" y="4.342"/><use xlink:href="#4" y="6.513"/><use xlink:href="#5" y="8.684"/><use xlink:href="#6" y="10.855"/><use xlink:href="#7" y="13.026"/><use xlink:href="#8" y="15.197"/><use xlink:href="#9" y="17.368"/><use xlink:href="#10" y="19.539"/><use xlink:href="#11" y="21.71"/><use xlink:href="#12" y="23.881"/><use xlink:href="#13" y="26.052"/><use xlink:href="#14" y="28.223"/><use xlink:href="#15" y="30.394"/><use xlink:href="#16" y="32.565"/><use xlink:href="#17" y="34.736"/><use xlink:href="#12" y="36.907"/><use xlink:href="#18" y="39.078"/><use xlink:href="#19" y="41.249"/><use xlink:href="#20" y="43.42"/></svg><svg x="700"><use xlink:href="#a"/><use xlink:href="#1"/><use xlink:href="#2" y="2.171"/><use xlink:href="#3" y="4.342"/><use xlink:href="#4" y="6.513"/><use xlink:href="#5" y="8.684"/><use xlink:href="#6" y="10.855"/><use xlink:href="#7" y="13.026"/><use xlink:href="#8" y="15.197"/><use xlink:href="#9" y="17.368"/><use xlink:href="#10" y="19.539"/><use xlink:href="#11" y="21.71"/><use xlink:href="#12" y="23.881"/><use xlink:href="#13" y="26.052"/><use xlink:href="#14" y="28.223"/><use xlink:href="#15" y="30.394"/><use xlink:href="#16" y="32.565"/><use xlink:href="#17" y="34.736"/><use xlink:href="#12" y="36.907"/><use xlink:href="#18" y="39.078"/><use xlink:href="#19" y="41.249"/><use xlink:href="#20" y="43.42"/><use xlink:href="#21" y="45.591"/></svg><svg x="800"><use xlink:href="#a"/><use xlink:href="#2"/><use xlink:href="#3" y="2.171"/><use xlink:href="#4" y="4.342"/><use xlink:href="#5" y="6.513"/><use xlink:href="#6" y="8.684"/><use xlink:href="#7" y="10.855"/><use xlink:href="#8" y="13.026"/><use xlink:href="#9" y="15.197"/><use xlink:href="#10" y="17.368"/><use xlink:href="#11" y="19.539"/><use xlink:href="#12" y="21.71"/><use xlink:href="#13" y="23.881"/><use xlink:href="#14" y="26.052"/><use xlink:href="#15" y="28.223"/><use xlink:href="#16" y="30.394"/><use xlink:href="#17" y="32.565"/><use xlink:href="#12" y="34.736"/><use xlink:href="#18" y="36.907"/><use xlink:href="#19" y="39.078"/><use xlink:href="#20" y="41.249"/><use xlink:href="#21" y="43.42"/><use xlink:href="#22" y="45.591"/><use xlink:href="#23" y="47.762"/><use xlink:href="#24" y="49.933"/><use xlink:href="#25" y="52.104"/><use xlink:href="#26" y="54.275"/><use xlink:href="#27" y="58.617"/></svg><svg x="900"><use xlink:href="#a"/><use xlink:href="#3"/><use xlink:href="#4" y="2.171"/><use xlink:href="#5" y="4.342"/><use xlink:href="#6" y="6.513"/><use xlink:href="#7" y="8.684"/><use xlink:href="#8" y="10.855"/><use xlink:href="#9" y="13.026"/><use xlink:href="#10" y="15.197"/><use xlink:href="#11" y="17.368"/><use xlink:href="#12" y="19.539"/><use xlink:href="#13" y="21.71"/><use xlink:href="#14" y="23.881"/><use xlink:href="#15" y="26.052"/><use xlink:href="#16" y="28.223"/><use xlink:href="#17" y="30.394"/><use xlink:href="#12" y="32.565"/><use xlink:href="#18" y="34.736"/><use xlink:href="#19" y="36.907"/><use xlink:href="#20" y="39.078"/><use xlink:href="#21" y="41.249"/><use xlink:href="#22" y="43.42"/><use xlink:href="#23" y="45.591"/><use xlink:href="#24" y="47.762"/><use xlink:href="#25" y="49.933"/><use xlink:href="#26" y="52.104"/><use xlink:href="#27" y="56.446"/><use xlink:href="#28" y="58.617"/></svg><svg x="1000"><use xlink:href="#a"/><use xlink:href="#22"/><use xlink:href="#23" y="2.171"/><use xlink:href="#24" y="4.342"/><use xlink:href="#25" y="6.513"/><use xlink:href="#26" y="8.684"/><use xlink:href="#27" y="13.026"/><use xlink:href="#28" y="15.197"/><use xlink:href="#29" y="17.368"/><use xlink:href="#30" y="21.71"/><use xlink:href="#31" y="26.052"/><use xlink:href="#32" y="28.223"/><use xlink:href="#33" y="30.394"/><use xlink:href="#34" y="32.565"/><use xlink:href="#35" y="34.736"/><use xlink:href="#36" y="36.907"/><use xlink:href="#37" y="39.078"/><use xlink:href="#34" y="41.249"/><use xlink:href="#38" y="43.42"/><use xlink:href="#39" y="45.591"/><use xlink:href="#40" y="47.762"/><use xlink:href="#41" y="49.933"/><use xlink:href="#42" y="52.104"/><use xlink:href="#43" y="56.446"/><use xlink:href="#44" y="58.617"/><text x="2.004" y="62.458" class="h">┗━</text><text x="5.01" y="62.458" class="h">Violates</text><text x="14.028" y="62.458" class="h">rule</text><text x="19.038" y="62.458" class="h">a_76ab71:</text><text x="29.058" y="62.458" class="h">&quot;Do</text><text x="33.066" y="62.458" class="h">not</text><text x="37.074" y="62.458" class="h">bypass</text><text x="44.088" y="62.458" class="h">get_session</text><text x="56.112" y="62.458" class="h">because</text><text x="64.128" y="62.458" class="h">&apos;the</text><text x="69.138" y="62.458" class="h">session</text><text x="77.154" y="62.458" class="h">is</text></svg><svg x="1100"><use xlink:href="#a"/><use xlink:href="#27" y="2.171"/><use xlink:href="#28" y="4.342"/><use xlink:href="#29" y="6.513"/><use xlink:href="#30" y="10.855"/><use xlink:href="#31" y="15.197"/><use xlink:href="#32" y="17.368"/><use xlink:href="#33" y="19.539"/><use xlink:href="#34" y="21.71"/><use xlink:href="#35" y="23.881"/><use xlink:href="#36" y="26.052"/><use xlink:href="#37" y="28.223"/><use xlink:href="#34" y="30.394"/><use xlink:href="#38" y="32.565"/><use xlink:href="#39" y="34.736"/><use xlink:href="#40" y="36.907"/><use xlink:href="#41" y="39.078"/><use xlink:href="#42" y="41.249"/><use xlink:href="#43" y="45.591"/><use xlink:href="#44" y="47.762"/><use xlink:href="#36" y="49.933"/><use xlink:href="#37" y="52.104"/><use xlink:href="#34" y="54.275"/><use xlink:href="#38" y="56.446"/></svg><svg x="1200"><use xlink:href="#a"/><use xlink:href="#27"/><use xlink:href="#28" y="2.171"/><use xlink:href="#29" y="4.342"/><use xlink:href="#30" y="8.684"/><use xlink:href="#31" y="13.026"/><use xlink:href="#32" y="15.197"/><use xlink:href="#33" y="17.368"/><use xlink:href="#34" y="19.539"/><use xlink:href="#35" y="21.71"/><use xlink:href="#36" y="23.881"/><use xlink:href="#37" y="26.052"/><use xlink:href="#34" y="28.223"/><use xlink:href="#38" y="30.394"/><use xlink:href="#39" y="32.565"/><use xlink:href="#40" y="34.736"/><use xlink:href="#41" y="36.907"/><use xlink:href="#42" y="39.078"/><use xlink:href="#43" y="43.42"/><use xlink:href="#44" y="45.591"/><use xlink:href="#36" y="47.762"/><use xlink:href="#37" y="49.933"/><use xlink:href="#34" y="52.104"/><use xlink:href="#38" y="54.275"/><text y="60.287" class="f">$</text><text x="2.004" y="60.287" class="f">#</text><text x="4.008" y="60.287" class="f">Demo</text><text x="9.018" y="60.287" class="f">completed</text><text x="19.038" y="60.287" class="f">successfully!</text><text x="33.066" y="60.287" class="f">⚡</text></svg></svg></g></g></svg></svg>